<svg width="1905" height="1080" viewBox="0 0 1905 1080" fill="none" xmlns="http://www.w3.org/2000/svg">
<path d="M779.023 -322.701C931.324 -266.379 1041.86 -97.0333 985.544 136.52C943.035 335.51 859.543 431.982 798.752 648.261C755.085 809.937 772.185 947.177 883.432 1071.86L996.689 1211C1074.81 1307.55 1105.44 1409.92 1048.13 1579.84L1025.78 1672L606.054 1194.84C495.099 1068.06 449.707 883.898 486.998 700.347C545.163 420.028 751.393 -24.514 777.176 -269.122C779.074 -288.841 776.03 -304.235 779.023 -322.701Z" fill="#020202" fill-opacity="0.03"/>
<path d="M1086.89 24.206C1170.55 150.923 1213.72 284.879 1165.58 496.898C1121.55 670.317 1046.44 788.759 1018.22 900.975C1001.58 966.585 993.072 1019.36 989.676 1065.82C868.573 961.003 833.12 862.859 889.161 664.74C933.521 496.562 1068.32 305.991 1086.38 107.761C1091.99 75.7567 1092.04 54.1608 1086.89 24.206Z" fill="#020202" fill-opacity="0.03"/>
<path d="M1255.01 522.741C1276.84 787.957 1246.97 943.269 1105.31 1230.32C1064.35 1072.87 1069.52 951.343 1165.27 765.278C1207.65 678.985 1243.05 606.357 1255.01 522.741Z" fill="#020202" fill-opacity="0.03"/>
<path d="M413.205 631C256.779 631 145 766.765 145 914.02C145 1061.44 267.618 1178.27 411.75 1175.19C561.058 1171.96 680.602 1042.5 679.793 903.663C678.176 762.073 557.176 631 413.205 631Z" fill="#FC5602" fill-opacity="0.02"/>
</svg>
