<svg width="512" height="512" viewBox="0 0 512 512" fill="none" xmlns="http://www.w3.org/2000/svg">
<path d="M254.873 101.437C228.802 101.437 210.172 124.064 210.172 148.607C210.172 173.176 230.608 192.648 254.63 192.136C279.515 191.596 299.439 170.021 299.304 146.881C299.034 123.282 278.868 101.437 254.873 101.437Z" fill="#FC5602"/>
<path d="M60.2424 93.9662C47.1665 121.718 48.9729 161.984 84.4532 188.414C112.735 211.554 139.345 214.979 168.409 238.847C189.654 256.917 201.948 281.055 201.678 307.755C201.409 340.793 195.855 373.561 216.83 395.649C225.674 405.25 235.325 411.372 247.08 418.573L246.811 290.063C246.272 258.373 232.683 227.25 209.497 205.702C171.051 170.021 107.963 146.341 72.4826 112.009C66.6591 106.183 62.9385 101.167 60.2424 93.9662Z" fill="#020202"/>
<path d="M59.1914 182.022C61.0517 214.79 69.059 237.93 98.635 260.531C123.466 280.273 146.922 286.637 165.525 301.606C174.637 309.076 181.836 317.895 186.85 323.721C190.571 292.84 181.998 268.972 155.064 250.067C131.635 233.48 99.4168 225.497 71.162 198.797C66.9022 194.536 62.3997 189.493 59.1914 182.022Z" fill="#020202"/>
<path d="M93.8643 279.221C117.293 318.947 142.124 339.714 190.303 363.852C180.381 338.177 166.523 317.895 136.408 304.815C119.693 297.371 105.026 289.901 93.8643 279.221Z" fill="#020202"/>
<path d="M452.494 93.4268C465.543 121.179 460.771 160.123 427.744 187.092C400.298 210.772 379.026 214.197 347.347 238.065C323.891 256.135 310.842 278.412 311.112 310.91L310.033 345.782C309.225 369.92 301.756 388.826 275.658 406.356L262.609 416.982L262.34 293.38C262.34 260.612 277.007 227.844 302.08 205.755C340.526 172.178 415.935 133.531 446.32 101.032C448.746 98.3892 450.067 95.7462 452.494 93.4268Z" fill="#020202"/>
<path d="M453.035 183.64C449.584 212.903 440.201 238.038 410.599 262.904C385.795 282.646 363.148 290.359 347.133 303.17C337.751 310.641 330.822 317.275 325.241 323.64C321.52 292.787 327.91 273.881 356.974 252.063C381.238 233.13 419.442 222.504 443.706 195.804C447.966 191.839 450.366 188.684 453.035 183.64Z" fill="#020202"/>
<path d="M419.062 278.142C392.425 319.756 371.423 338.662 321.653 362.53C333.92 334.239 348.048 317.113 380.805 302.145C395.741 294.944 408.278 288.849 419.062 278.142Z" fill="#020202"/>
</svg>
